<?xml version="1.0" encoding="UTF-8" standalone="no"?>
<!-- Created with Inkscape (http://www.inkscape.org/) -->

<svg
   xmlns:dc="http://purl.org/dc/elements/1.1/"
   xmlns:cc="http://creativecommons.org/ns#"
   xmlns:rdf="http://www.w3.org/1999/02/22-rdf-syntax-ns#"
   xmlns:svg="http://www.w3.org/2000/svg"
   xmlns="http://www.w3.org/2000/svg"
   xmlns:sodipodi="http://sodipodi.sourceforge.net/DTD/sodipodi-0.dtd"
   xmlns:inkscape="http://www.inkscape.org/namespaces/inkscape"
   width="480"
   height="320"
   viewBox="0 0 127 84.666669"
   version="1.1"
   id="svg8"
   inkscape:version="0.92.3 (2405546, 2018-03-11)"
   sodipodi:docname="screen_empty.svg"
   inkscape:export-filename="/home/zwax/Dokumente/sloeber-workspace/Amalettomat2/images/screen_empty.png"
   inkscape:export-xdpi="96"
   inkscape:export-ydpi="96">
  <defs
     id="defs2" />
  <sodipodi:namedview
     id="base"
     pagecolor="#000000"
     bordercolor="#666666"
     borderopacity="1.0"
     inkscape:pageopacity="1"
     inkscape:pageshadow="2"
     inkscape:zoom="1.979899"
     inkscape:cx="-2.0291365"
     inkscape:cy="41.784529"
     inkscape:document-units="px"
     inkscape:current-layer="layer1"
     showgrid="true"
     units="px"
     showguides="true"
     inkscape:guide-bbox="true"
     inkscape:snap-grids="true"
     inkscape:window-width="1920"
     inkscape:window-height="976"
     inkscape:window-x="0"
     inkscape:window-y="27"
     inkscape:window-maximized="1">
    <sodipodi:guide
       position="2.6458334,13.229167"
       orientation="0,1"
       id="guide815"
       inkscape:locked="false"
       inkscape:label=""
       inkscape:color="rgb(0,0,255)" />
    <inkscape:grid
       type="xygrid"
       id="grid817"
       empspacing="10"
       dotted="false" />
  </sodipodi:namedview>
  <metadata
     id="metadata5">
    <rdf:RDF>
      <cc:Work
         rdf:about="">
        <dc:format>image/svg+xml</dc:format>
        <dc:type
           rdf:resource="http://purl.org/dc/dcmitype/StillImage" />
        <dc:title />
      </cc:Work>
    </rdf:RDF>
  </metadata>
  <g
     inkscape:label="Ebene 1"
     inkscape:groupmode="layer"
     id="layer1"
     transform="translate(0,-212.33333)">
    <path
       style="fill:#ffffff;stroke:#ffffff;stroke-width:0.26458334;stroke-linecap:butt;stroke-linejoin:miter;stroke-opacity:1;stroke-miterlimit:4;stroke-dasharray:none"
       d="M 0,283.77083 H 127"
       id="path4524"
       inkscape:connector-curvature="0" />
    <path
       style="fill:#ffffff;stroke:#ffffff;stroke-width:0.01650582"
       d="m 6.8071501,294.05726 c -0.49357,-0.0443 -0.9358,-0.25791 -1.28032,-0.61855 -0.1639,-0.17157 -0.25151,-0.29889 -0.35484,-0.51566 -0.41157,-0.86345 -0.12191,-1.947 0.66095,-2.47243 l 0.13131,-0.0881 8.7e-4,-1.64232 c 8.8e-4,-1.84537 -8.7e-4,-1.80741 0.11537,-2.04199 0.30122,-0.60788 1.14153,-0.72739 1.59854,-0.22735 0.10289,0.11258 0.15485,0.20176 0.21247,0.36473 l 0.046,0.13023 0.005,1.71661 0.005,1.7166 0.12698,0.0824 c 0.16189,0.10501 0.41633,0.35861 0.52835,0.52661 0.24589,0.36876 0.34526,0.72469 0.32876,1.17767 -0.0189,0.51751 -0.19283,0.92152 -0.55682,1.29299 -0.37189,0.37955 -0.80779,0.5746 -1.33697,0.59827 -0.0862,0.004 -0.19023,0.004 -0.23108,3.5e-4 z m 0.55295,-0.53247 c 0.63563,-0.18915 1.06179,-0.72407 1.09262,-1.37141 0.02,-0.42035 -0.11778,-0.79253 -0.40452,-1.09265 -0.13904,-0.14554 -0.30339,-0.26286 -0.46976,-0.33534 l -0.11105,-0.0484 v -1.82554 c 0,-2.03526 0.007,-1.91115 -0.11505,-2.04976 -0.097,-0.11025 -0.2129,-0.16566 -0.36476,-0.17445 -0.11153,-0.006 -0.13807,-0.002 -0.22842,0.0386 -0.0671,0.0301 -0.12693,0.0734 -0.17415,0.12587 -0.13277,0.14768 -0.12446,0.0108 -0.12463,2.05106 l -1.2e-4,1.81683 -0.13602,0.0622 c -0.39186,0.1793 -0.69582,0.55044 -0.81419,0.99414 -0.0416,0.15589 -0.0497,0.48613 -0.0159,0.65319 0.0595,0.29478 0.19809,0.55232 0.4128,0.76701 0.20612,0.20613 0.46325,0.34808 0.74346,0.41044 0.16631,0.037 0.55186,0.0252 0.70976,-0.0219 z m -0.52024,-0.21785 c -0.50333,-0.0409 -0.94587,-0.41882 -1.07309,-0.91626 -0.044,-0.17216 -0.0441,-0.43423 -1.2e-4,-0.60603 0.0637,-0.24905 0.21286,-0.48446 0.41108,-0.64876 0.12102,-0.10032 0.33103,-0.20999 0.46143,-0.24096 l 0.0845,-0.02 0.004,-0.91642 c 0.004,-0.84583 0.007,-0.9206 0.0344,-0.97079 0.0832,-0.15229 0.30553,-0.15729 0.40269,-0.009 0.0276,0.0422 0.0301,0.11126 0.0345,0.97085 l 0.004,0.92541 0.0856,0.0203 c 0.12888,0.0306 0.33812,0.14092 0.46136,0.24321 0.45395,0.3768 0.57419,1.03183 0.28529,1.55416 -0.0864,0.15621 -0.32486,0.39083 -0.47844,0.47072 -0.23474,0.12213 -0.45109,0.16539 -0.71831,0.14365 z m 2.03573,-2.98688 c -0.15697,-0.047 -0.21839,-0.24233 -0.11678,-0.37151 0.0746,-0.0949 0.13011,-0.10523 0.56611,-0.10562 0.37912,-3.5e-4 0.40003,8.7e-4 0.47004,0.0367 0.17404,0.0882 0.18723,0.29561 0.0264,0.41576 -0.0429,0.0321 -0.0697,0.0342 -0.46939,0.0372 -0.23312,0.002 -0.44751,-0.004 -0.47642,-0.0126 z m -0.2476,-0.99044 c -0.18621,-0.0554 -0.22321,-0.29129 -0.0656,-0.41812 l 0.0634,-0.051 h 0.565 0.565 l 0.0591,0.0405 c 0.15655,0.10726 0.15944,0.28981 0.006,0.40413 -0.0436,0.0326 -0.0683,0.0341 -0.5932,0.0371 -0.30662,0.002 -0.57077,-0.004 -0.6002,-0.0126 z m 5.8e-4,-0.99061 c -0.0592,-0.0171 -0.14887,-0.11117 -0.16418,-0.1722 -0.0285,-0.11362 0.0596,-0.2574 0.17721,-0.28906 0.0417,-0.0113 0.25415,-0.0158 0.58856,-0.0126 0.5122,0.005 0.52454,0.006 0.58399,0.0428 0.081,0.0504 0.13515,0.16072 0.11958,0.2437 -0.0149,0.0799 -0.0936,0.16746 -0.16929,0.18846 -0.0753,0.0209 -1.06317,0.02 -1.13587,-8.7e-4 z m -0.0338,-1.00412 c -0.0499,-0.0229 -0.0792,-0.0513 -0.10495,-0.10186 -0.0592,-0.11605 -0.0265,-0.23242 0.0897,-0.31923 0.0435,-0.0324 0.07,-0.0343 0.58526,-0.039 0.60788,-0.005 0.636,-0.002 0.71807,0.10021 0.0409,0.0507 0.0501,0.0775 0.0501,0.14449 0,0.0888 -0.03,0.14386 -0.11171,0.20489 -0.0437,0.0326 -0.0691,0.0342 -0.60145,0.0381 -0.51848,0.003 -0.56054,0.002 -0.62506,-0.0276 z"
       id="path4614"
       inkscape:connector-curvature="0" />
    <path
       style="opacity:0.97000002;fill:#ffffff;stroke:#ffffff;stroke-width:0.26458335;stroke-miterlimit:4;stroke-dasharray:none"
       d="M 42.333341,283.77083 V 297 v 0"
       id="path4620"
       inkscape:connector-curvature="0" />
  </g>
</svg>
