<?xml version="1.0" encoding="UTF-8" standalone="no"?>
<!-- Created with Inkscape (http://www.inkscape.org/) -->

<svg
   xmlns:dc="http://purl.org/dc/elements/1.1/"
   xmlns:cc="http://creativecommons.org/ns#"
   xmlns:rdf="http://www.w3.org/1999/02/22-rdf-syntax-ns#"
   xmlns:svg="http://www.w3.org/2000/svg"
   xmlns="http://www.w3.org/2000/svg"
   xmlns:sodipodi="http://sodipodi.sourceforge.net/DTD/sodipodi-0.dtd"
   xmlns:inkscape="http://www.inkscape.org/namespaces/inkscape"
   width="480"
   height="320"
   viewBox="0 0 127 84.666664"
   version="1.1"
   id="svg843"
   inkscape:version="0.92.3 (2405546, 2018-03-11)"
   sodipodi:docname="Splashscreen.svg">
  <defs
     id="defs837" />
  <sodipodi:namedview
     id="base"
     pagecolor="#ffffff"
     bordercolor="#666666"
     borderopacity="1.0"
     inkscape:pageopacity="0.0"
     inkscape:pageshadow="2"
     inkscape:zoom="1.4"
     inkscape:cx="179.16553"
     inkscape:cy="101.45619"
     inkscape:document-units="px"
     inkscape:current-layer="layer1"
     showgrid="false"
     units="px"
     inkscape:window-width="1920"
     inkscape:window-height="976"
     inkscape:window-x="0"
     inkscape:window-y="27"
     inkscape:window-maximized="1" />
  <metadata
     id="metadata840">
    <rdf:RDF>
      <cc:Work
         rdf:about="">
        <dc:format>image/svg+xml</dc:format>
        <dc:type
           rdf:resource="http://purl.org/dc/dcmitype/StillImage" />
        <dc:title></dc:title>
      </cc:Work>
    </rdf:RDF>
  </metadata>
  <g
     inkscape:label="Ebene 1"
     inkscape:groupmode="layer"
     id="layer1"
     transform="translate(0,-212.33335)">
    <g
       transform="matrix(0.12785822,0,0,0.12785822,-3.7765195,175.57906)"
       id="g1401">
      <path
         style="fill:#000000;fill-opacity:1;stroke:none"
         d="m 110.70501,412.73645 c -21.976929,0 -39.781254,17.80433 -39.781254,39.78125 0,21.97693 17.804325,39.8125 39.781254,39.8125 11.50474,0 39.86593,-0.007 39.86593,-0.007 0,0 -0.0847,-29.33282 -0.0847,-39.805 0,-10.65357 -0.0564,-39.78049 -0.0564,-39.78049 0,0 -28.4015,-7.6e-4 -39.72485,-7.6e-4 z m 0,32.84375 c 3.83724,0 6.9375,3.10026 6.9375,6.9375 0,3.83724 -3.10026,6.96875 -6.9375,6.96875 -3.83725,0 -6.9375,-3.13151 -6.9375,-6.96875 0,-3.83724 3.10025,-6.9375 6.9375,-6.9375 z"
         id="path3012"
         inkscape:connector-curvature="0"
         sodipodi:nodetypes="ssscscssssss" />
      <rect
         style="fill:#000000;fill-opacity:1;stroke:none"
         id="rect3014"
         width="120.00984"
         height="39.161121"
         x="372.31284"
         y="-421.12027"
         transform="rotate(90)" />
      <path
         inkscape:connector-curvature="0"
         style="fill:#000000;fill-opacity:1;stroke:none"
         d="m 559.125,372.29895 -39.15625,40.4375 V 492.3302 H 559.125 v -65.8125 h 10.84375 v 65.8125 H 609.125 v -65.8125 h 15.0625 V 412.73645 H 609.125 v -40.4375 l -39.15625,40.4375 H 559.125 Z"
         id="path3016" />
      <path
         inkscape:connector-curvature="0"
         style="fill:#000000;fill-opacity:1;stroke:none"
         d="m 658.49153,412.73645 c -21.97692,0 -39.78125,17.80433 -39.78125,39.78125 0,21.97693 17.80433,39.8125 39.78125,39.8125 21.97692,0 39.78125,-17.83557 39.78125,-39.8125 0,-21.97692 -17.80433,-39.78125 -39.78125,-39.78125 z m 0,32.84375 c 3.83724,0 6.9375,3.10026 6.9375,6.9375 0,3.83724 -3.10026,6.96875 -6.9375,6.96875 -3.83724,0 -6.9375,-3.13151 -6.9375,-6.96875 0,-3.83724 3.10026,-6.9375 6.9375,-6.9375 z"
         id="path3018" />
      <path
         style="fill:#000000;fill-opacity:1;stroke:none"
         d="m 238.49042,492.3227 -0.0354,-40.33625 c -0.003,-3.60079 3.24584,-6.40625 6.90625,-6.40625 3.83724,0 6.9375,3.10026 6.9375,6.9375 0,3.83724 0.0372,39.805 0.0372,39.805 h 33.03907 c 0,0 -0.23252,-28.59685 -0.23252,-39.805 0,-21.97692 -17.80433,-39.78125 -39.78125,-39.78125 -8.72079,0 -16.75753,2.80722 -23.3125,7.5625 -6.55497,-4.75528 -14.62296,-7.5625 -23.34375,-7.5625 -21.97692,0 -39.78125,17.80433 -39.78125,39.78125 0,12.0002 -0.18882,39.805 -0.18882,39.805 h 33.08259 c 0,0 0.13204,-33.79481 -0.05,-39.8051 0,-3.83724 3.10026,-6.9375 6.9375,-6.9375 v 10e-5 c 3.58686,0 6.53747,2.69995 6.90625,6.1875 l 0.0518,40.555"
         id="path3020"
         inkscape:connector-curvature="0"
         sodipodi:nodetypes="csssccsscsscccsscc" />
      <path
         sodipodi:nodetypes="csssccsscsscccsscc"
         inkscape:connector-curvature="0"
         id="path3024"
         d="m 784.49042,492.3227 -0.0354,-40.33625 c -0.003,-3.60079 3.24584,-6.40625 6.90625,-6.40625 3.83724,0 6.9375,3.10026 6.9375,6.9375 0,3.83724 0.0372,39.805 0.0372,39.805 h 33.03907 c 0,0 -0.23252,-28.59685 -0.23252,-39.805 0,-21.97692 -17.80433,-39.78125 -39.78125,-39.78125 -8.72079,0 -16.75753,2.80722 -23.3125,7.5625 -6.55497,-4.75528 -14.62296,-7.5625 -23.34375,-7.5625 -21.97692,0 -39.78125,17.80433 -39.78125,39.78125 0,12.0002 -0.18882,39.805 -0.18882,39.805 h 33.08259 c 0,0 0.13204,-33.79481 -0.05,-39.8051 0,-3.83724 3.10026,-6.9375 6.9375,-6.9375 v 10e-5 c 3.58686,0 6.53747,2.69995 6.90625,6.1875 l 0.0518,40.555"
         style="fill:#000000;fill-opacity:1;stroke:none" />
      <path
         inkscape:connector-curvature="0"
         style="fill:#000000;fill-opacity:1;stroke:none"
         d="m 969.125,372.29895 -39.15625,40.4375 V 492.3302 H 969.125 v -65.8125 h 12.3125 V 412.73645 H 969.125 Z"
         id="path3026" />
      <path
         sodipodi:nodetypes="ssscscssssss"
         inkscape:connector-curvature="0"
         id="path3028"
         d="m 330.70501,412.73645 c -21.97692,0 -39.78125,17.80433 -39.78125,39.78125 0,21.97693 17.80433,39.8125 39.78125,39.8125 11.50474,0 39.86593,-0.007 39.86593,-0.007 0,0 -0.0847,-29.33282 -0.0847,-39.805 0,-10.65357 -0.0564,-39.78049 -0.0564,-39.78049 0,0 -28.4015,-7.6e-4 -39.72485,-7.6e-4 z m 0,32.84375 c 3.83724,0 6.9375,3.10026 6.9375,6.9375 0,3.83724 -3.10026,6.96875 -6.9375,6.96875 -3.83724,0 -6.9375,-3.13151 -6.9375,-6.96875 0,-3.83724 3.10026,-6.9375 6.9375,-6.9375 z"
         style="fill:#000000;fill-opacity:1;stroke:none" />
      <path
         style="fill:#000000;fill-opacity:1;stroke:none"
         d="m 878.70501,412.73645 c -21.97692,0 -39.78125,17.80433 -39.78125,39.78125 0,21.97693 17.80433,39.8125 39.78125,39.8125 11.50474,0 39.86593,-0.007 39.86593,-0.007 0,0 -0.0847,-29.33282 -0.0847,-39.805 0,-10.65357 -0.0564,-39.78049 -0.0564,-39.78049 0,0 -28.4015,-7.6e-4 -39.72485,-7.6e-4 z m 0,32.84375 c 3.83724,0 6.9375,3.10026 6.9375,6.9375 0,3.83724 -3.10026,6.96875 -6.9375,6.96875 -3.83724,0 -6.9375,-3.13151 -6.9375,-6.96875 0,-3.83724 3.10026,-6.9375 6.9375,-6.9375 z"
         id="path3030"
         inkscape:connector-curvature="0"
         sodipodi:nodetypes="ssscscssssss" />
      <path
         sodipodi:nodetypes="cssccsccsccsccs"
         inkscape:connector-curvature="0"
         id="path3159"
         transform="translate(0,308.2677)"
         d="m 470.5,104.46875 c -21.97692,0 -39.78125,17.80433 -39.78125,39.78125 0,21.97693 17.80433,39.8125 39.78125,39.8125 14.51253,0 27.17689,-7.79462 34.125,-19.40625 -16.3197,-0.003 -39.59269,4.5e-4 -39.60289,0 -0.3064,-0.0113 -1.48935,-0.30199 -1.61434,-1.55641 -0.0585,-0.58678 0.12499,-1.93501 1.92456,-1.93501 l 41.1125,0.14361 c 2.84552,-5.4845 3.83642,-10.45448 3.83642,-17.05849 0,-21.97692 -17.80433,-39.78125 -39.78125,-39.78125 z m 0.17462,29.79299 c 5.15698,0.0586 10.22023,4.26013 10.22024,9.49435 l -21.34098,-0.23198 c 0.56005,-6.06577 5.67804,-9.32419 11.12074,-9.26237 z"
         style="fill:#000000;fill-opacity:1;stroke:none" />
    </g>
    <path
       style="fill:#000000;fill-opacity:1;stroke:none;stroke-width:0.10867561"
       d="m 63.955078,246.20087 v 7.40693 c 4.971252,-0.32115 9.258556,4.49504 9.88948,9.36648 0.806538,6.22737 -4.089257,11.70497 -10.144189,12.45694 -7.390854,0.91787 -13.880358,-4.90704 -14.73913,-12.10374 -0.966884,-8.10272 4.905391,-15.27421 12.565617,-17.02132 -8.571202,0.97839 -15.224774,8.25197 -15.224774,17.08584 0,9.50129 7.696629,17.2149 17.197916,17.2149 9.501287,0 17.197917,-7.71361 17.197917,-17.2149 0,-9.34938 -7.451698,-16.95042 -16.742837,-17.19113 z m -0.86601,0.26829 c -8.151185,1.06742 -14.695812,8.44328 -13.696523,16.81756 0.831631,6.96924 7.115684,12.59964 14.253486,11.7132 5.828083,-0.7238 10.540909,-5.99752 9.76722,-11.97131 -1.001596,-7.73348 -8.782241,-10.00534 -8.840082,-8.57518 -0.02146,0.53063 4.554853,1.44238 5.38284,6.23866 0.548623,3.17801 -1.347294,6.67676 -4.703617,7.22692 -2.338105,0.38326 -4.897841,-1.01741 -5.280955,-3.49799 -0.253904,-1.64396 0.699231,-3.45956 2.390863,-3.8573 0.241605,-0.0568 0.472483,-0.10873 0.726768,-0.14332 z m 0.86601,8.52765 v 5.43039 c 1.441149,0.21961 2.543688,1.46137 2.543688,2.9648 0,1.65895 -1.339813,3.01574 -2.998768,3.01574 -1.658955,0 -2.998767,-1.35679 -2.998767,-3.01574 0,-0.23198 0.02509,-0.4557 0.07471,-0.67243 -0.200931,0.51205 -0.271681,1.08385 -0.186786,1.63352 0.342128,2.21522 2.673165,3.48248 4.795311,3.13462 3.092648,-0.50694 4.848083,-3.7526 4.336836,-6.71412 -0.493375,-2.85798 -2.80918,-5.05369 -5.566228,-5.77678 z"
       id="path3856"
       inkscape:connector-curvature="0"
       sodipodi:nodetypes="ccssscsssccssssssssccccssscsssc" />
    <text
       xml:space="preserve"
       style="font-style:normal;font-variant:normal;font-weight:normal;font-stretch:normal;font-size:6.3499999px;line-height:1.25;font-family:'DejaVu Sans';-inkscape-font-specification:'DejaVu Sans';letter-spacing:0px;word-spacing:0px;fill:#000000;fill-opacity:1;stroke:none;stroke-width:0.26458332"
       x="56.463219"
       y="291.25479"
       id="text7635"><tspan
         sodipodi:role="line"
         id="tspan7633"
         x="56.463219"
         y="291.25479"
         style="font-style:normal;font-variant:normal;font-weight:normal;font-stretch:normal;font-family:'DejaVu Sans';-inkscape-font-specification:'DejaVu Sans';stroke-width:0.26458332">V2.0</tspan></text>
  </g>
</svg>
